<?xml version="1.0" standalone="no"?>
<!DOCTYPE svg PUBLIC "-//W3C//DTD SVG 20010904//EN"
 "http://www.w3.org/TR/2001/REC-SVG-20010904/DTD/svg10.dtd">
<svg version="1.0" xmlns="http://www.w3.org/2000/svg"
 width="200.000000pt" height="200.000000pt" viewBox="0 0 200.000000 200.000000"
 preserveAspectRatio="xMidYMid meet">
<metadata>
Created by potrace 1.11, written by Peter Selinger 2001-2013
</metadata>
<g transform="translate(0.000000,200.000000) scale(0.100000,-0.100000)"
fill="#000000" stroke="none">
<path d="M688 1964 c-150 -38 -263 -149 -313 -307 -16 -50 -30 -77 -47 -87
-169 -105 -231 -320 -143 -490 55 -108 173 -194 275 -202 26 -2 31 -7 36 -38
3 -19 16 -62 30 -95 21 -52 22 -65 13 -99 -37 -134 53 -268 190 -283 67 -7
121 11 174 57 25 22 56 40 69 40 37 0 129 27 177 52 54 28 133 98 161 142 20
33 21 34 63 24 58 -14 161 -4 229 23 72 27 164 109 201 178 72 132 66 300 -15
420 -28 42 -29 46 -18 90 32 121 21 224 -35 337 -110 224 -391 317 -614 204
l-59 -29 -59 29 c-96 49 -209 62 -315 34z m242 -108 c19 -8 55 -29 80 -46 25
-16 47 -30 50 -30 3 0 30 16 60 35 146 94 325 82 449 -31 109 -98 147 -263 92
-401 l-20 -52 36 -48 c54 -71 76 -129 76 -198 0 -86 -26 -155 -81 -214 -82
-87 -206 -122 -312 -87 -28 9 -59 14 -68 12 -10 -3 -32 -30 -49 -60 -52 -85
-130 -144 -221 -164 l-40 -9 -5 48 c-18 153 -174 243 -313 180 l-42 -19 -11
26 c-7 14 -15 53 -18 86 -3 34 -10 66 -17 73 -6 7 -37 15 -70 18 -158 17 -260
126 -259 277 1 109 57 196 158 248 25 13 46 28 46 34 6 52 10 74 24 117 33 97
120 180 228 215 52 17 178 12 227 -10z m-90 -1181 c106 -102 -29 -274 -151
-192 -112 75 -55 236 79 223 30 -2 53 -12 72 -31z"/>
<path d="M785 1529 c-51 -14 -102 -71 -105 -119 -4 -47 0 -59 21 -71 31 -16
66 3 76 42 17 66 87 69 104 6 10 -37 27 -57 50 -57 27 0 49 28 49 61 0 90
-103 163 -195 138z"/>
<path d="M1201 1526 c-87 -30 -140 -155 -79 -187 30 -16 65 3 75 42 17 66 87
69 104 6 10 -37 27 -57 50 -57 50 0 65 74 26 130 -40 61 -112 87 -176 66z"/>
<path d="M751 1173 c-13 -15 -17 -31 -13 -43 16 -42 72 -108 117 -138 149 -98
341 -64 448 80 42 57 47 90 16 111 -27 19 -54 11 -75 -22 -63 -99 -154 -141
-257 -119 -52 11 -113 54 -139 97 -37 60 -68 72 -97 34z"/>
<path d="M974 361 c-134 -61 -135 -255 -2 -320 52 -25 95 -27 145 -6 48 20 71
41 94 87 24 47 24 109 0 156 -23 46 -46 67 -94 87 -48 20 -93 19 -143 -4z
m125 -100 c53 -46 30 -126 -39 -137 -28 -5 -40 -1 -63 20 -73 67 27 182 102
117z"/>
</g>
</svg>
